# Blender v2.77 (sub 0) OBJ File: ''
# www.blender.org
mtllib asteroid2.mtl
o Icosphere.004
v 0.000000 -0.759769 0.004998
v 0.387614 -0.794410 0.305458
v -0.160144 -0.701699 0.425676
v -0.375865 -0.612067 0.030830
v 0.364974 -0.663613 -0.265722
v 0.287188 -0.548819 0.847847
v -0.137580 -0.728638 -0.434165
v -0.434793 -0.365990 0.411297
v 0.746724 -0.449850 0.006090
v -0.310588 -0.484188 0.904464
v 0.486960 -0.298659 0.442036
v -0.634487 -0.474225 -0.443242
v -0.818533 -0.384289 0.004192
v 0.687797 -0.419690 -0.466832
v 0.249649 -0.487141 -0.738307
v 0.000000 -0.016154 1.015460
v 0.624588 -0.074748 0.773215
v -0.258594 -0.405340 -0.762575
v -0.796067 0.071447 0.281549
v -0.624588 -0.074748 0.773215
v 0.779499 0.057991 -0.231546
v 0.796067 0.071447 0.281549
v -0.443067 0.010582 -0.608272
v -0.779499 0.057991 -0.231546
v 0.443068 0.010582 -0.608272
v 0.000000 0.016394 -0.759951
v -0.049051 0.103767 0.959810
v -0.059565 0.098499 0.958630
v -0.548799 0.004177 0.830330
v -0.589769 0.014390 0.787263
v 0.150403 0.439514 0.779781
v 0.091999 0.224253 0.893331
v 0.080092 0.194233 0.917178
v 0.939147 0.415388 0.425254
v -0.689524 0.414824 0.063670
v -1.053542 0.331327 0.473685
v -0.905491 0.159159 0.636019
v 0.754049 0.361131 0.055139
v 0.687669 0.494112 -0.481924
v -0.652327 0.045290 0.697772
v -0.781895 0.113283 0.651074
v 0.053462 0.151433 0.939888
v 0.172784 0.480569 0.741843
v -0.264720 0.545689 -0.841816
v -0.781597 0.454335 -0.543379
v -1.031187 0.361071 0.439417
v 0.268049 0.457104 -0.857052
v 0.140885 0.739974 0.515994
v 0.143557 0.673297 0.561779
v 0.202212 0.549654 0.642630
v 0.204369 0.533307 0.660690
v 0.486269 0.813379 0.059075
v -0.386932 0.795167 -0.183868
v -0.810871 0.440232 0.335159
v -0.680134 0.450220 0.293663
v -0.436767 0.763766 0.263917
v 0.147221 0.742385 -0.420063
v 0.175581 0.865492 0.392750
v -0.434749 0.814317 0.225786
v -0.425568 0.881827 0.170427
v 0.000000 1.026199 -0.037357
v 0.125538 0.952870 0.270098
v 0.161461 0.930107 0.296107
v -0.336321 0.954650 0.100375
v -0.326354 0.960918 0.099888
v -0.365409 -0.011099 1.181067
v 0.086945 0.112405 1.492364
v -0.539248 0.094662 1.707573
v -0.993471 0.012066 1.198540
v -0.108866 0.441688 2.049869
v -1.142846 0.401644 1.730665
v 0.400016 0.503249 1.177402
v -0.648425 0.579386 2.040065
v 0.488271 0.469021 1.756412
v -1.205926 0.424635 0.641272
v -1.758086 0.287373 1.189607
v -0.370356 1.097847 2.133555
v 0.263676 1.048092 2.129131
v -1.822937 0.979781 1.664195
v -1.226883 1.044554 2.321276
v 0.490261 1.080794 0.929896
v 0.815577 0.972360 1.519130
v -1.730024 0.961927 0.749354
v -0.971611 0.989797 0.370009
v 0.272661 1.095014 0.220179
v -0.680013 1.703720 2.198728
v -0.058908 1.749233 2.658050
v 0.653935 1.950445 2.104264
v -0.385756 1.052624 0.050777
v -1.816411 1.912207 1.176276
v -1.528584 1.754909 2.101391
v 0.562730 1.818497 0.413635
v 0.930796 1.529921 1.151787
v -1.555563 1.627388 0.191873
v -0.702891 1.677727 0.138359
v -0.093016 1.589461 0.096538
v -0.892052 2.148025 1.593259
v -0.218182 2.368259 1.977022
v 0.475686 2.500155 1.158983
v -0.956995 2.122384 0.753229
v -0.257819 2.289257 0.368983
v -0.529627 2.478643 1.181019
vn -0.1494 -0.9856 0.0792
vn -0.3664 -0.9304 -0.0110
vn 0.0882 -0.9702 -0.2257
vn -0.0665 -0.9135 0.4013
vn -0.3625 -0.9308 0.0476
vn -0.7502 -0.6021 0.2732
vn 0.5845 -0.7856 -0.2031
vn 0.1674 -0.9783 -0.1218
vn -0.0614 -0.9159 0.3968
vn 0.9198 -0.2642 0.2899
vn -0.4556 -0.8901 -0.0103
vn -0.4313 -0.7866 0.4419
vn -0.7742 -0.6315 0.0436
vn 0.5493 -0.8268 -0.1212
vn 0.7661 -0.3088 0.5636
vn 0.2459 -0.8869 -0.3912
vn 0.0619 -0.2690 0.9611
vn 0.8174 -0.5741 0.0485
vn -0.3618 -0.7275 -0.5829
vn -0.4571 -0.8894 -0.0092
vn -0.6703 -0.3614 0.6481
vn -0.8012 -0.5955 0.0591
vn 0.9836 -0.1245 -0.1305
vn 0.3782 -0.8332 -0.4034
vn 0.7364 -0.3692 0.5669
vn -0.0841 -0.7254 -0.6831
vn -0.3632 0.0201 0.9315
vn 0.3512 -0.1035 0.9306
vn 0.7833 -0.6150 0.0903
vn -0.6470 -0.0041 -0.7625
vn -0.9268 -0.1097 -0.3592
vn -0.9970 0.0699 -0.0340
vn -0.7807 -0.6186 0.0884
vn 0.9965 -0.0784 -0.0301
vn 0.7202 0.1903 -0.6671
vn 0.5245 0.0185 -0.8512
vn 0.0443 -0.0210 -0.9988
vn -0.3378 0.0361 0.9405
vn 0.3831 0.3212 0.8661
vn 0.8805 -0.4400 0.1763
vn -0.3196 0.2017 -0.9258
vn -0.7403 0.0645 -0.6692
vn -0.9610 0.2739 -0.0382
vn -0.6772 -0.7353 -0.0271
vn 0.9926 0.1165 -0.0351
vn 0.7423 -0.2092 -0.6366
vn 0.3230 0.1198 -0.9388
vn -0.1400 0.5368 0.8320
vn 0.0167 0.4066 0.9135
vn 0.3909 0.3657 0.8447
vn 0.8882 -0.1959 -0.4155
vn -0.3062 -0.2932 -0.9057
vn -0.6943 -0.4472 -0.5638
vn -0.9806 0.1179 0.1564
vn -0.7097 -0.2094 -0.6727
vn 0.9837 0.1601 -0.0819
vn 0.6665 -0.1461 -0.7311
vn 0.2960 -0.3737 -0.8790
vn 0.3180 0.6428 0.6969
vn 0.7665 0.4578 -0.4504
vn -0.0582 -0.1809 -0.9818
vn -0.4575 -0.2232 -0.8607
vn -0.7222 0.6744 0.1534
vn -0.5958 0.7891 -0.1498
vn 0.8604 0.5093 0.0198
vn 0.3296 0.8297 -0.4505
vn 0.4376 0.7753 0.4554
vn 0.1259 0.8463 -0.5177
vn -0.3733 0.8423 -0.3887
vn -0.8635 0.5005 -0.0622
vn 0.3511 0.8578 -0.3755
vn 0.4380 0.8868 0.1476
vn -0.0696 0.9284 -0.3650
vn -0.4559 0.8065 -0.3766
vn 0.4324 0.7959 -0.4239
vn -0.0818 0.9614 0.2627
vn -0.2061 0.7464 -0.6328
vn 0.1063 -0.9675 0.2294
vn -0.0310 -0.9819 0.1870
vn 0.3278 -0.9425 -0.0657
vn 0.2123 -0.8069 0.5512
vn -0.0778 -0.9946 -0.0690
vn -0.3851 -0.7928 0.4723
vn 0.7459 -0.6560 -0.1155
vn 0.2273 -0.9605 -0.1607
vn -0.1632 -0.5828 0.7961
vn 0.3113 -0.7664 0.5620
vn -0.5071 -0.7910 -0.3422
vn -0.2970 -0.8083 0.5084
vn -0.2684 -0.5853 0.7651
vn 0.7402 -0.5543 -0.3805
vn 0.7098 -0.6885 -0.1489
vn -0.0557 -0.1481 0.9874
vn 0.4236 -0.3684 0.8276
vn -0.2890 -0.8188 -0.4960
vn -0.8882 -0.3365 -0.3130
vn -0.5082 -0.5188 0.6874
vn -0.2000 -0.6769 0.7084
vn 0.8891 -0.2902 -0.3540
vn 0.7930 -0.5890 -0.1557
vn 0.2221 -0.2871 0.9318
vn -0.0031 -0.1277 0.9918
vn 0.7233 -0.1529 0.6734
vn -0.5812 -0.4277 -0.6923
vn -0.5447 -0.1066 -0.8318
vn -0.9946 -0.0242 -0.1005
vn -0.5637 -0.5975 0.5702
vn 0.8456 -0.3909 -0.3636
vn 0.7957 -0.3393 -0.5017
vn 0.2138 0.0042 0.9769
vn -0.0427 -0.6141 0.7881
vn 0.6938 -0.2818 0.6627
vn -0.4270 -0.2412 -0.8715
vn -0.2861 -0.2335 -0.9293
vn -0.9939 -0.0454 -0.1001
vn -0.7318 -0.1022 0.6739
vn 0.3850 -0.6680 -0.6368
vn 0.9134 -0.2898 -0.2859
vn 0.7308 -0.4744 -0.4908
vn -0.0948 0.2574 0.9616
vn -0.5383 -0.3572 0.7633
vn 0.6371 -0.2555 0.7272
vn 0.9589 -0.0112 0.2837
vn -0.3600 -0.5419 -0.7595
vn -0.4660 -0.1135 -0.8775
vn -0.3328 -0.4878 -0.8070
vn -0.9639 0.0312 -0.2644
vn -0.9316 0.1736 0.3194
vn 0.2702 -0.4644 -0.8434
vn 0.7206 -0.4436 -0.5328
vn 0.4119 0.0776 -0.9079
vn -0.0199 0.8027 0.5960
vn -0.5147 0.5711 0.6395
vn 0.2667 0.7434 0.6134
vn 0.9030 0.4230 0.0757
vn -0.0418 -0.3042 -0.9517
vn -0.0517 0.1128 -0.9923
vn -0.3811 0.8563 -0.3487
vn -0.3476 0.9005 0.2613
vn 0.2521 -0.0551 -0.9661
vn 0.8700 0.4101 -0.2735
vn 0.2796 0.4048 -0.8706
vn -0.5381 0.5785 0.6130
vn 0.3403 0.8393 0.4239
vn -0.0847 0.7904 -0.6066
vn -0.0118 0.3604 -0.9327
vn -0.2426 0.9701 -0.0109
vn 0.4282 0.6912 -0.5821
vn -0.4428 0.8481 0.2909
vn -0.0180 0.9894 0.1442
vn -0.4912 0.5968 -0.6345
vn -0.6563 0.7540 0.0277
vn -0.0259 0.9716 -0.2353
vn -0.3870 0.8609 -0.3303
usemtl None
s off
f 1//1 2//1 3//1
f 1//2 3//2 4//2
f 2//3 1//3 5//3
f 3//4 2//4 6//4
f 1//5 4//5 7//5
f 4//6 3//6 8//6
f 9//7 2//7 5//7
f 1//8 7//8 5//8
f 3//9 6//9 10//9
f 2//10 11//10 6//10
f 7//11 4//11 12//11
f 4//12 8//12 13//12
f 3//13 10//13 8//13
f 9//14 5//14 14//14
f 11//15 2//15 9//15
f 5//16 7//16 15//16
f 10//17 6//17 16//17
f 6//18 11//18 17//18
f 7//19 12//19 18//19
f 4//20 13//20 12//20
f 13//21 8//21 19//21
f 8//22 10//22 20//22
f 9//23 14//23 21//23
f 5//24 15//24 14//24
f 11//25 9//25 22//25
f 7//26 18//26 15//26
f 10//27 16//27 20//27
f 16//28 6//28 17//28
f 11//29 22//29 17//29
f 18//30 12//30 23//30
f 12//31 13//31 24//31
f 13//32 19//32 24//32
f 19//33 8//33 20//33
f 22//34 9//34 21//34
f 14//35 25//35 21//35
f 14//36 15//36 25//36
f 15//37 18//37 26//37
f 20//38 16//38 27//38 28//38 29//38 30//38
f 16//39 17//39 31//39 32//39 33//39
f 17//40 22//40 34//40
f 18//41 23//41 26//41
f 23//42 12//42 24//42
f 24//43 19//43 35//43
f 36//44 19//44 20//44 37//44
f 22//45 21//45 38//45
f 21//46 25//46 39//46
f 25//47 15//47 26//47
f 20//48 30//48 40//48 41//48 37//48
f 16//49 33//49 42//49 27//49
f 31//50 17//50 34//50 43//50
f 22//51 38//51 34//51
f 26//52 23//52 44//52
f 23//53 24//53 45//53
f 24//54 35//54 45//54
f 46//55 35//55 19//55 36//55
f 21//56 39//56 38//56
f 25//57 47//57 39//57
f 25//58 26//58 47//58
f 43//59 34//59 48//59 49//59 50//59 51//59
f 34//60 38//60 52//60
f 26//61 44//61 47//61
f 23//62 45//62 44//62
f 45//63 35//63 53//63
f 35//64 46//64 54//64 55//64 56//64
f 38//65 39//65 52//65
f 39//66 47//66 57//66
f 48//67 34//67 52//67 58//67
f 47//68 44//68 57//68
f 44//69 45//69 53//69
f 53//70 35//70 56//70 59//70 60//70
f 52//71 39//71 57//71
f 58//72 52//72 61//72 62//72 63//72
f 57//73 44//73 53//73
f 53//74 60//74 64//74 65//74 61//74
f 52//75 57//75 61//75
f 62//76 61//76 65//76
f 57//77 53//77 61//77
f 66//78 67//78 68//78
f 66//79 68//79 69//79
f 67//80 66//80 28//80 27//80 42//80
f 68//81 67//81 70//81
f 66//82 69//82 40//82 30//82 29//82
f 69//83 68//83 71//83
f 72//84 67//84 42//84 33//84 32//84
f 28//85 66//85 29//85
f 68//86 70//86 73//86
f 67//87 74//87 70//87
f 40//88 69//88 75//88 41//88
f 69//89 71//89 76//89
f 68//90 73//90 71//90
f 72//91 32//91 31//91 43//91 51//91
f 74//92 67//92 72//92
f 73//93 70//93 77//93
f 70//94 74//94 78//94
f 69//95 76//95 75//95
f 41//96 75//96 54//96 46//96 36//96 37//96
f 76//97 71//97 79//97
f 71//98 73//98 80//98
f 50//99 81//99 72//99 51//99
f 74//100 72//100 82//100
f 73//101 77//101 80//101
f 77//102 70//102 78//102
f 74//103 82//103 78//103
f 75//104 76//104 83//104
f 54//105 75//105 84//105 55//105
f 76//106 79//106 83//106
f 79//107 71//107 80//107
f 49//108 85//108 81//108 50//108
f 82//109 72//109 81//109
f 80//110 77//110 86//110
f 77//111 78//111 87//111
f 78//112 82//112 88//112
f 84//113 75//113 83//113
f 55//114 84//114 89//114 59//114 56//114
f 83//115 79//115 90//115
f 79//116 80//116 91//116
f 63//117 85//117 49//117 48//117 58//117
f 81//118 85//118 92//118
f 82//119 81//119 93//119
f 80//120 86//120 91//120
f 77//121 87//121 86//121
f 78//122 88//122 87//122
f 82//123 93//123 88//123
f 84//124 83//124 94//124
f 89//125 84//125 95//125
f 59//126 89//126 64//126 60//126
f 83//127 90//127 94//127
f 79//128 91//128 90//128
f 85//129 63//129 62//129 65//129 64//129 89//129
f 81//130 92//130 93//130
f 85//131 96//131 92//131
f 91//132 86//132 97//132
f 86//133 87//133 98//133
f 87//134 88//134 98//134
f 88//135 93//135 99//135
f 84//136 94//136 95//136
f 89//137 95//137 96//137
f 94//138 90//138 100//138
f 90//139 91//139 97//139
f 85//140 89//140 96//140
f 93//141 92//141 99//141
f 92//142 96//142 101//142
f 97//143 86//143 98//143
f 98//144 88//144 99//144
f 95//145 94//145 100//145
f 96//146 95//146 101//146
f 100//147 90//147 97//147
f 99//148 92//148 101//148
f 97//149 98//149 102//149
f 98//150 99//150 102//150
f 101//151 95//151 100//151
f 100//152 97//152 102//152
f 99//153 101//153 102//153
f 101//154 100//154 102//154
