# Blender v2.77 (sub 0) OBJ File: ''
# www.blender.org
mtllib asteroid1.mtl
o Icosphere_Icosphere.004
v -0.265437 -1.171283 0.695246
v 0.363424 -0.476698 1.155406
v -0.550763 -0.538265 1.566101
v -1.348285 -0.613859 0.705852
v -0.546048 -0.537967 -0.169472
v 0.457974 -0.530022 0.169347
v 0.010333 0.439434 1.688399
v -1.065869 0.409901 1.276300
v -1.021282 0.384321 0.148562
v 0.010302 0.468868 -0.400586
v 0.901700 0.504601 0.676310
v -0.262760 0.962135 0.698828
v -0.435180 -0.960821 1.213639
v 0.182285 -0.981079 1.022853
v -0.002917 -0.681085 1.607086
v 0.579571 -0.604346 0.695507
v 0.111084 -0.851131 0.409948
v -0.884640 -1.083463 0.702960
v -0.862465 -0.548237 1.101070
v -0.443006 -1.011567 0.149166
v -1.094366 -0.714906 0.102149
v -0.001224 -0.737852 -0.312183
v 0.561126 -0.082662 0.963461
v 0.555370 -0.050322 0.421154
v -0.283162 -0.083863 1.712868
v 0.393070 -0.087288 1.575168
v -1.127396 -0.080316 0.944465
v -0.721723 -0.062269 1.311306
v -1.058828 -0.087815 -0.393180
v -1.361530 -0.085767 0.350180
v 0.202138 -0.065529 0.034820
v -0.261916 -0.085062 -0.354909
v 0.354921 0.378106 1.109293
v -0.552164 0.490800 1.578436
v -1.161786 0.470446 0.694971
v -0.563314 0.494391 -0.198234
v 0.598195 0.607276 0.013317
v -0.093582 0.684600 1.143270
v 0.255780 0.851655 0.701819
v -0.734474 0.854743 1.035721
v -0.559833 0.497271 0.491501
v -0.104592 0.895255 0.146518
vn 0.0939 -0.9114 0.4008
vn 0.7788 -0.4055 0.4786
vn -0.1281 -0.9328 0.3368
vn -0.1393 -0.9617 -0.2360
vn 0.4170 -0.8268 -0.3774
vn 0.8620 -0.2071 0.4626
vn -0.1328 -0.2330 0.9634
vn -0.6210 -0.0911 0.7785
vn -0.1900 -0.6019 -0.7756
vn 0.6771 0.1653 -0.7171
vn 0.9090 -0.3357 0.2472
vn -0.6631 0.1539 0.7325
vn -0.9089 0.2170 0.3561
vn 0.0453 -0.4027 -0.9142
vn 0.7186 0.2032 -0.6650
vn 0.5592 0.7907 0.2490
vn -0.4549 0.6614 0.5963
vn -0.1048 0.9779 -0.1811
vn -0.1879 0.7552 -0.6280
vn 0.4694 0.8795 -0.0787
vn 0.2083 0.9763 -0.0586
vn 0.3495 0.9242 -0.1542
vn 0.2160 0.7916 -0.5716
vn -0.7444 0.6033 -0.2862
vn -0.6581 0.7529 0.0002
vn -0.2357 0.9718 -0.0029
vn -0.5487 0.6070 -0.5748
vn -0.2324 0.7771 -0.5850
vn -0.7357 0.6504 0.1891
vn 0.1482 0.8632 0.4826
vn 0.1367 0.8434 0.5196
vn 0.0032 0.9122 0.4097
vn 0.1813 0.8637 0.4703
vn 0.4762 0.6287 0.6148
vn 0.3746 0.6486 0.6626
vn 0.8401 -0.3244 -0.4348
vn 0.6784 -0.4186 -0.6038
vn 0.5914 -0.3710 -0.7159
vn -0.3282 0.0837 -0.9409
vn 0.0450 0.2825 -0.9582
vn -0.5531 0.6467 -0.5252
vn -0.8301 0.4770 -0.2886
vn -0.9254 0.1069 0.3636
vn -0.9864 0.0127 0.1641
vn -0.4563 -0.2697 0.8480
vn -0.6721 -0.1447 0.7262
vn -0.1771 0.1448 0.9735
vn 0.7770 0.4760 0.4119
vn 0.9105 0.3275 0.2526
vn 0.6167 0.0270 0.7867
vn 0.6093 -0.3578 -0.7076
vn 0.6251 0.2003 -0.7544
vn -0.3122 -0.1856 -0.9317
vn -0.8254 0.4527 -0.3373
vn -0.8998 -0.2379 -0.3657
vn -0.9065 -0.2512 -0.3392
vn -0.6075 -0.3916 0.6911
vn -0.6621 -0.1277 0.7385
vn -0.8307 -0.0003 0.5568
vn 0.1988 -0.0658 0.9778
vn 0.1985 -0.0799 0.9768
vn 0.7714 -0.4928 0.4027
vn 0.8558 -0.5158 -0.0398
vn 0.9992 0.0396 -0.0082
vn 0.9693 -0.0737 -0.2344
vn 0.5798 -0.7863 -0.2135
vn 0.3577 -0.9124 -0.1988
vn -0.3975 -0.5702 -0.7189
vn -0.2056 -0.5767 -0.7907
vn -0.3571 -0.8466 -0.3947
vn -0.7007 -0.6907 -0.1791
vn -0.5040 -0.5019 0.7029
vn -0.6109 -0.4561 0.6472
vn -0.6753 -0.5725 0.4649
vn 0.5635 -0.7899 -0.2418
vn 0.5608 -0.7943 -0.2336
vn 0.5204 -0.8211 -0.2345
vn -0.2256 -0.6597 0.7169
vn 0.1210 -0.8669 0.4835
vn 0.7912 -0.4047 0.4586
usemtl None
s off
f 1//1 14//1 13//1
f 2//2 14//2 16//2
f 1//3 13//3 18//3
f 1//4 18//4 20//4
f 1//5 20//5 17//5
f 2//6 16//6 23//6
f 3//7 15//7 25//7
f 4//8 19//8 27//8
f 5//9 21//9 29//9
f 6//10 22//10 31//10
f 2//11 23//11 26//11
f 3//12 25//12 28//12
f 4//13 27//13 30//13
f 5//14 29//14 32//14
f 6//15 31//15 24//15
f 7//16 33//16 38//16
f 8//17 34//17 40//17
f 9//18 35//18 41//18
f 10//19 36//19 42//19
f 11//20 37//20 39//20
f 39//21 42//21 12//21
f 39//22 37//22 42//22
f 37//23 10//23 42//23
f 42//24 41//24 12//24
f 42//25 36//25 41//25
f 36//26 9//26 41//26
f 41//27 40//27 12//27
f 41//28 35//28 40//28
f 35//29 8//29 40//29
f 40//30 38//30 12//30
f 40//31 34//31 38//31
f 34//32 7//32 38//32
f 38//33 39//33 12//33
f 38//34 33//34 39//34
f 33//35 11//35 39//35
f 24//36 37//36 11//36
f 24//37 31//37 37//37
f 31//38 10//38 37//38
f 32//39 36//39 10//39
f 32//40 29//40 36//40
f 29//41 9//41 36//41
f 30//42 35//42 9//42
f 30//43 27//43 35//43
f 27//44 8//44 35//44
f 28//45 34//45 8//45
f 28//46 25//46 34//46
f 25//47 7//47 34//47
f 26//48 33//48 7//48
f 26//49 23//49 33//49
f 23//50 11//50 33//50
f 31//51 32//51 10//51
f 31//52 22//52 32//52
f 22//53 5//53 32//53
f 29//54 30//54 9//54
f 29//55 21//55 30//55
f 21//56 4//56 30//56
f 27//57 28//57 8//57
f 27//58 19//58 28//58
f 19//59 3//59 28//59
f 25//60 26//60 7//60
f 25//61 15//61 26//61
f 15//62 2//62 26//62
f 23//63 24//63 11//63
f 23//64 16//64 24//64
f 16//65 6//65 24//65
f 17//66 22//66 6//66
f 17//67 20//67 22//67
f 20//68 5//68 22//68
f 20//69 21//69 5//69
f 20//70 18//70 21//70
f 18//71 4//71 21//71
f 18//72 19//72 4//72
f 18//73 13//73 19//73
f 13//74 3//74 19//74
f 16//75 17//75 6//75
f 16//76 14//76 17//76
f 14//77 1//77 17//77
f 13//78 15//78 3//78
f 13//79 14//79 15//79
f 14//80 2//80 15//80
