# Blender v2.78 (sub 0) OBJ File: 'spaceship1.blend'
# www.blender.org
mtllib spaceship1.mtl
o Cube
v 1.668707 -1.461438 0.127754
v 1.668707 -1.324948 2.393456
v -0.331293 -1.324948 2.393456
v -0.331293 -1.461438 0.127754
v 1.668708 -0.190691 0.127755
v 1.217054 -0.428914 1.801323
v 0.120359 -0.428914 1.801322
v -0.331293 -0.190691 0.127754
v 2.261694 -2.017269 -2.208019
v -0.924278 -2.017269 -2.208019
v 2.261695 0.266238 -2.208018
v -0.924279 0.266238 -2.208019
v 2.261695 -2.381678 -4.658324
v -0.924278 -2.381678 -4.658325
v 2.261696 -0.098171 -5.551942
v -0.924278 -0.098171 -5.551942
v 1.181691 -1.788991 0.168875
v 1.181691 -1.652501 2.215917
v 0.155724 -1.652501 2.215917
v 0.155724 -1.788991 0.168874
v 1.485884 -2.344822 -2.166898
v -0.148468 -2.344822 -2.166899
v 1.485884 -2.709231 -4.617203
v -0.148468 -2.709231 -4.617204
v -0.036176 -0.393691 0.846025
v -0.036176 0.415269 -0.342547
v -0.036176 -0.516825 -2.640597
v -0.036176 0.775182 -1.939602
v 1.373590 -0.393691 0.846025
v 1.373590 0.415269 -0.342547
v 1.373590 -0.516825 -2.640597
v 1.373590 0.775182 -1.939602
v 1.505401 0.657757 -3.810293
v -0.167985 0.657757 -3.810293
v 1.505401 0.293347 -5.566639
v -0.167984 0.293347 -5.566639
v 1.635099 -1.926283 -6.789979
v -0.297682 -1.926283 -6.789979
v 1.635100 -0.540986 -6.789979
v -0.297682 -0.540986 -6.789979
v 1.164451 -2.124995 -6.585042
v 0.172966 -2.124995 -6.585042
v 1.176291 -0.303470 -6.618905
v 0.161126 -0.303470 -6.618905
v 3.154998 -1.091101 -3.032528
v -1.817583 -1.091101 -3.032529
v 3.154999 -0.261149 -3.032527
v -1.817584 -0.261149 -3.032528
v 3.154999 -1.223548 -4.658324
v -1.817581 -1.223548 -4.658325
v 3.155001 -0.393596 -5.551942
v -1.817582 -0.393596 -5.551942
v 7.152080 -1.848676 -4.337623
v -5.814667 -1.848676 -4.337623
v 7.152084 -1.523909 -4.337622
v -5.814670 -1.523909 -4.337623
v 7.152083 -1.900504 -6.081910
v -5.814664 -1.900504 -6.081910
v 7.152088 -1.575737 -6.718046
v -5.814667 -1.575737 -6.718046
v 0.864755 1.512075 -3.810293
v 0.472662 1.512075 -3.810293
v 0.864755 1.147664 -5.566639
v 0.472662 1.147664 -5.566639
v 0.787112 3.148199 -2.865863
v 0.550305 3.148199 -2.865863
v 0.787112 2.783789 -4.622210
v 0.550305 2.783789 -4.622210
v 1.290756 -1.679479 -6.333202
v 0.046661 -1.679479 -6.333202
v 1.290756 -0.787790 -6.333201
v 0.046661 -0.787790 -6.333202
v 1.262562 -1.222410 2.028022
v 0.074852 -1.222410 2.028022
v 0.994346 -0.690295 1.676381
v 0.343068 -0.690295 1.676380
vt 0.7130 0.2062
vt 0.9200 0.2187
vt 0.9038 0.1888
vt 0.7168 0.1763
vt 0.7130 0.3223
vt 0.7130 0.3223
vt 0.8659 0.3006
vt 0.8659 0.3006
vt 0.8545 0.2767
vt 0.8545 0.2767
vt 0.4996 0.1555
vt 0.4996 0.3641
vt 0.4996 0.3641
vt 0.3532 0.3999
vt 0.3532 0.3999
vt 0.7130 0.2062
vt 0.4996 0.1555
vt 0.2758 0.1222
vt 0.5034 0.1255
vt 0.2795 0.0922
vt 0.0997 0.1456
vt 0.0810 0.1638
vt 0.1941 0.3308
vt 0.1941 0.3038
vt 0.4243 0.3159
vt 0.1941 0.3308
vt 0.1941 0.3038
vt 0.2758 0.2280
vt 0.5034 0.1255
vt 0.7168 0.1763
vt 0.9200 0.2187
vt 0.9038 0.1888
vt 0.2795 0.0922
vt 0.0810 0.2903
vt 0.2758 0.1222
vt 0.8237 0.4642
vt 0.7151 0.5381
vt 0.5692 0.5710
vt 0.5051 0.4529
vt 0.5692 0.5710
vt 0.5051 0.4529
vt 0.7151 0.5381
vt 0.8237 0.4642
vt 0.1928 0.3666
vt 0.3532 0.4779
vt 0.1928 0.4446
vt 0.1928 0.3666
vt 0.0966 0.3120
vt 0.0810 0.2903
vt 0.0810 0.1638
vt 0.1227 0.2678
vt 0.1227 0.1863
vt 0.0997 0.1456
vt 0.0966 0.3120
vt 0.2758 0.2280
vt 0.1457 0.1661
vt 0.0876 0.1958
vt 0.3051 0.2005
vt 0.4243 0.2401
vt 0.4243 0.3159
vt 0.4243 0.2401
vt 0.3051 0.2005
vt 0.3051 0.1709
vt 0.1457 0.1661
vt 0.0876 0.1958
vt 0.3051 0.1709
vt 0.3532 0.4779
vt 0.1928 0.4446
vt 0.2791 0.5941
vt 0.4395 0.6274
vt 0.4395 0.6274
vt 0.2791 0.5941
vt 0.1227 0.2678
vt 0.1227 0.1863
vt 0.8866 0.2281
vt 0.8866 0.2281
vn 0.5522 -0.8320 0.0527
vn -0.0000 0.9900 0.1409
vn 1.0000 -0.0000 0.0000
vn -0.0000 -0.4313 0.9022
vn 0.9693 -0.0000 0.2461
vn -0.0000 0.9714 0.2374
vn -0.0000 0.9814 0.1920
vn -0.9693 -0.0000 0.2461
vn 0.3915 -0.9102 0.1354
vn 0.3197 -0.8982 -0.3017
vn -0.3872 0.9187 -0.0779
vn 0.2337 -0.4841 -0.8432
vn -0.4557 -0.8423 0.2879
vn 0.7648 0.5761 0.2884
vn -1.0000 -0.0000 -0.0000
vn -0.7648 0.5761 0.2884
vn -0.0000 -0.9978 0.0665
vn -0.0000 -0.9728 0.2315
vn -0.0000 -0.9891 0.1471
vn 0.9338 -0.0847 -0.3476
vn -0.3915 -0.9102 0.1354
vn -0.5522 -0.8320 0.0527
vn 0.4557 -0.8423 0.2879
vn 0.0000 -0.4765 0.8792
vn 0.0000 0.4769 -0.8790
vn 0.0000 0.8267 0.5627
vn 0.0000 -0.9994 0.0353
vn 0.0000 0.9755 0.2198
vn -0.7939 0.5954 -0.1235
vn 0.5530 0.8248 -0.1179
vn -0.5530 0.8248 -0.1179
vn -0.3452 0.7920 -0.5036
vn 0.7985 0.0000 -0.6020
vn 0.0000 -0.7179 -0.6961
vn 0.0000 0.5844 -0.8114
vn 0.0000 0.8698 -0.4933
vn 0.0000 -0.9586 -0.2846
vn -0.3197 -0.8982 -0.3017
vn -0.9338 -0.0847 -0.3476
vn 0.3452 0.7920 -0.5036
vn 0.3559 -0.7459 -0.5630
vn -0.2821 0.9587 -0.0361
vn -0.2337 -0.4841 -0.8432
vn 0.7718 -0.6312 0.0769
vn 0.6782 -0.0000 0.7348
vn -0.7718 -0.6312 0.0769
vn 0.3872 0.9187 -0.0779
vn -0.6782 -0.0000 0.7348
vn -0.3104 -0.0000 0.9506
vn -0.1585 -0.9859 0.0539
vn 0.2821 0.9587 -0.0361
vn -0.3559 -0.7459 -0.5630
vn 0.3104 -0.0000 0.9506
vn 0.1585 -0.9859 0.0539
vn 0.9985 0.0538 -0.0112
vn 0.0000 0.0000 -1.0000
vn 0.7939 0.5954 -0.1235
vn -0.0000 0.0000 1.0000
vn 0.0000 0.9791 -0.2032
vn -0.0000 -0.4999 0.8661
vn -0.9985 0.0538 -0.0112
vn 0.0000 0.4999 -0.8661
vn 0.0000 0.8798 -0.4754
vn 0.0000 -0.8798 -0.4754
vn -0.7985 0.0000 -0.6020
vn -0.0000 0.5513 0.8343
vn 0.6327 0.1790 0.7534
vn -0.6327 0.1790 0.7534
vn 0.0000 0.9628 0.2702
usemtl Material
s off
f 1/1/1 2/2/1 18/3/1 17/4/1
f 5/5/2 8/6/2 7/7/2 6/8/2
f 2/2/3 1/1/3 5/5/3
f 6/8/4 7/7/4 76/9/4 75/10/4
f 5/5/5 1/1/5 9/11/5 11/12/5
f 12/13/6 11/12/6 33/14/6 34/15/6
f 8/6/7 5/5/7 11/12/7 12/13/7
f 4/16/8 8/6/8 12/13/8 10/17/8
f 13/18/9 9/11/9 21/19/9 23/20/9
f 13/18/10 23/20/10 41/21/10 37/22/10
f 12/13/11 16/23/11 52/24/11 48/25/11
f 13/18/12 15/26/12 51/27/12 49/28/12
f 4/16/13 10/17/13 22/29/13 20/30/13
f 5/5/14 6/8/14 2/2/14
f 4/16/15 3/31/15 8/6/15
f 8/6/16 3/31/16 7/7/16
f 17/4/17 18/3/17 19/32/17 20/30/17
f 17/4/18 20/30/18 22/29/18 21/19/18
f 21/19/19 22/29/19 24/33/19 23/20/19
f 15/26/20 13/18/20 37/22/20 39/34/20
f 10/17/21 14/35/21 24/33/21 22/29/21
f 3/31/22 4/16/22 20/30/22 19/32/22
f 9/11/23 1/1/23 17/4/23 21/19/23
f 2/2/24 3/31/24 19/32/24 18/3/24
f 25/36/15 26/37/15 28/38/15 27/39/15
f 27/39/25 28/38/25 32/40/25 31/41/25
f 31/41/3 32/40/3 30/42/3 29/43/3
f 29/43/26 30/42/26 26/37/26 25/36/26
f 27/39/27 31/41/27 29/43/27 25/36/27
f 32/40/28 28/38/28 26/37/28 30/42/28
f 36/44/29 34/15/29 62/45/29 64/46/29
f 11/12/30 15/26/30 35/47/30 33/14/30
f 16/23/31 12/13/31 34/15/31 36/44/31
f 16/23/32 36/44/32 44/48/32 40/49/32
f 38/50/33 40/49/33 72/51/33 70/52/33
f 38/50/34 37/22/34 41/21/34 42/53/34
f 39/34/35 40/49/35 44/48/35 43/54/35
f 36/44/36 35/47/36 43/54/36 44/48/36
f 23/20/37 24/33/37 42/53/37 41/21/37
f 24/33/38 14/35/38 38/50/38 42/53/38
f 14/35/39 16/23/39 40/49/39 38/50/39
f 35/47/40 15/26/40 39/34/40 43/54/40
f 52/24/41 50/55/41 58/56/41 60/57/41
f 48/25/42 52/24/42 60/57/42 56/58/42
f 16/23/43 14/35/43 50/55/43 52/24/43
f 9/11/44 13/18/44 49/28/44 45/59/44
f 11/12/45 9/11/45 45/59/45 47/60/45
f 14/35/46 10/17/46 46/61/46 50/55/46
f 15/26/47 11/12/47 47/60/47 51/27/47
f 10/17/48 12/13/48 48/25/48 46/61/48
f 55/62/3 53/63/3 57/64/3 59/65/3
f 54/66/15 56/58/15 60/57/15 58/56/15
f 46/61/49 48/25/49 56/58/49 54/66/49
f 45/59/50 49/28/50 57/64/50 53/63/50
f 51/27/51 47/60/51 55/62/51 59/65/51
f 49/28/52 51/27/52 59/65/52 57/64/52
f 47/60/53 45/59/53 53/63/53 55/62/53
f 50/55/54 46/61/54 54/66/54 58/56/54
f 61/67/55 63/68/55 67/69/55 65/70/55
f 35/47/56 36/44/56 64/46/56 63/68/56
f 33/14/57 35/47/57 63/68/57 61/67/57
f 34/15/58 33/14/58 61/67/58 62/45/58
f 66/71/59 65/70/59 67/69/59 68/72/59
f 62/45/60 61/67/60 65/70/60 66/71/60
f 64/46/61 62/45/61 66/71/61 68/72/61
f 63/68/62 64/46/62 68/72/62 67/69/62
f 71/73/56 69/74/56 70/52/56 72/51/56
f 37/22/63 38/50/63 70/52/63 69/74/63
f 40/49/64 39/34/64 71/73/64 72/51/64
f 39/34/65 37/22/65 69/74/65 71/73/65
f 73/75/66 75/10/66 76/9/66 74/76/66
f 7/7/67 3/31/67 74/76/67 76/9/67
f 2/2/68 6/8/68 75/10/68 73/75/68
f 3/31/69 2/2/69 73/75/69 74/76/69
